<?xml version="1.0" standalone="no"?>
<!DOCTYPE svg PUBLIC "-//W3C//DTD SVG 20010904//EN"
 "http://www.w3.org/TR/2001/REC-SVG-20010904/DTD/svg10.dtd">
<svg version="1.0" xmlns="http://www.w3.org/2000/svg"
 width="300.000000pt" height="300.000000pt" viewBox="0 0 300.000000 300.000000"
 preserveAspectRatio="xMidYMid meet">
<metadata>
Created by potrace 1.10, written by Peter Selinger 2001-2011
</metadata>
<g transform="translate(0.000000,300.000000) scale(0.100000,-0.100000)"
fill="#000000" stroke="none">
<path d="M1788 2912 c11 -201 -67 -319 -394 -593 -175 -147 -245 -222 -291
-315 -29 -59 -35 -83 -35 -135 -1 -85 8 -121 48 -202 42 -82 155 -199 267
-275 42 -29 77 -49 77 -45 0 5 -19 28 -42 53 -135 148 -193 274 -191 417 2
115 50 191 216 345 258 238 322 313 373 437 51 126 52 255 3 353 -31 61 -37
53 -31 -40z m28 -197 c-17 -147 -106 -270 -373 -510 -117 -106 -186 -189 -221
-265 -42 -90 -33 -220 25 -360 3 -8 5 -18 5 -22 -1 -5 3 -8 9 -8 5 0 7 -4 4
-10 -10 -16 -91 79 -127 150 -31 60 -33 72 -33 160 0 88 2 99 33 156 48 88
103 146 274 290 244 205 347 322 389 442 16 48 23 39 15 -23z"/>
<path d="M2010 2370 c-8 -5 -55 -27 -105 -50 -184 -86 -310 -190 -373 -309 -6
-13 -19 -51 -28 -85 -22 -83 -7 -151 58 -259 81 -137 102 -187 101 -242 0 -47
-17 -98 -45 -137 -22 -30 0 -32 37 -4 106 82 158 162 159 246 1 57 -4 69 -90
225 -88 161 -72 271 60 413 69 74 135 125 227 176 49 27 58 36 39 35 -14 0
-32 -4 -40 -9z m-266 -192 c-4 -7 -18 -27 -30 -43 -13 -17 -35 -57 -50 -89
-22 -49 -26 -68 -22 -129 4 -75 18 -114 92 -245 68 -120 69 -174 4 -262 l-33
-44 -8 60 c-8 67 -69 212 -99 234 -4 3 -20 35 -37 70 -39 81 -42 161 -10 247
17 46 39 75 100 136 70 69 113 99 93 65z"/>
<path d="M2245 1366 c-17 -12 -12 -14 42 -18 77 -5 124 -38 148 -102 46 -120
-52 -289 -224 -386 -85 -48 -97 -57 -89 -65 10 -11 182 60 260 106 75 46 162
132 183 184 8 19 15 61 15 93 0 123 -96 202 -244 202 -45 0 -79 -5 -91 -14z
m231 -58 c71 -49 93 -141 53 -220 -20 -40 -87 -111 -121 -129 -24 -13 -23 -4
4 33 35 50 68 140 68 189 0 29 -9 63 -25 95 -14 27 -25 50 -25 52 0 7 17 -1
46 -20z"/>
<path d="M1005 1339 c-400 -70 -408 -170 -17 -240 225 -40 647 -42 878 -3 93
15 284 61 293 70 5 5 5 5 -42 32 l-39 22 -106 -19 c-246 -46 -527 -59 -766
-35 -146 14 -289 43 -309 63 -31 31 45 72 185 99 48 9 88 20 88 24 0 12 -43 9
-165 -13z m-145 -85 c0 -46 92 -92 215 -108 28 -4 75 -10 105 -14 30 -4 173
-7 317 -7 182 0 257 -3 245 -10 -26 -15 -557 -13 -667 3 -177 26 -325 70 -325
98 0 16 23 34 57 44 42 13 53 12 53 -6z m1033 -111 c3 -5 -9 -9 -26 -10 -18
-1 -47 -5 -65 -8 -19 -4 -32 -2 -29 2 3 5 23 10 43 11 21 2 40 5 43 7 7 8 29
6 34 -2z"/>
<path d="M963 985 c-58 -16 -128 -49 -138 -65 -27 -44 73 -98 241 -130 274
-52 652 -39 881 31 38 12 71 24 75 28 9 8 -100 73 -112 66 -4 -2 -65 -14 -136
-26 -170 -29 -474 -31 -607 -5 -145 28 -190 62 -135 100 21 15 21 16 3 15 -11
0 -44 -7 -72 -14z m31 -64 c34 -35 55 -44 161 -68 113 -25 465 -24 615 2 127
22 162 23 167 9 4 -12 -87 -38 -172 -49 -27 -4 -70 -11 -95 -15 -58 -11 -364
-10 -455 1 -197 24 -320 57 -340 89 -13 21 30 50 86 59 3 1 18 -12 33 -28z"/>
<path d="M1052 641 c-67 -23 -94 -47 -90 -80 2 -21 16 -33 68 -58 124 -62 392
-88 600 -59 109 15 270 60 270 74 0 4 -31 23 -69 43 l-69 37 -69 -15 c-87 -20
-407 -23 -473 -4 -88 24 -102 32 -97 58 5 27 -1 28 -71 4z m68 -54 c15 -13 56
-30 91 -38 84 -19 389 -19 482 0 61 12 69 12 94 -4 24 -16 25 -19 10 -30 -46
-33 -299 -57 -476 -44 -226 17 -378 84 -288 127 35 17 57 14 87 -11z"/>
<path d="M770 558 c-165 -34 -310 -98 -345 -151 -86 -132 374 -247 984 -247
512 0 921 88 971 209 11 26 10 35 -4 56 -21 31 -29 31 -46 1 -7 -14 -39 -39
-71 -56 -216 -115 -843 -160 -1272 -90 -255 41 -369 91 -353 155 8 33 81 80
158 103 32 9 58 20 58 25 0 9 -22 8 -80 -5z m-164 -119 c-6 -38 -4 -44 32 -79
29 -30 56 -44 122 -64 89 -27 265 -59 410 -74 103 -11 444 -12 555 -2 44 4 87
4 95 0 9 -5 -2 -9 -30 -9 -25 -1 -85 -5 -135 -10 -85 -9 -545 -6 -610 3 -16 3
-68 10 -115 16 -234 29 -400 74 -450 120 -17 16 -30 33 -30 38 0 23 109 92
159 101 2 1 1 -17 -3 -40z m1709 -88 c-19 -18 -110 -59 -145 -65 -28 -5 -24
-2 15 12 28 10 68 28 90 40 44 23 54 27 40 13z"/>
<path d="M2470 279 c-97 -84 -354 -168 -605 -198 -193 -23 -249 -26 -505 -25
-237 0 -363 9 -540 37 -8 1 -16 -2 -18 -8 -4 -12 180 -50 313 -64 125 -13 599
-13 720 0 362 39 633 143 674 259 13 37 5 37 -39 -1z"/>
</g>
</svg>
